<svg xmlns="http://www.w3.org/2000/svg" viewBox="0 0 64 64" role="img" aria-label="GIDO">
  <defs>
    <linearGradient id="orbit-warm" x1="0%" y1="50%" x2="100%" y2="50%">
      <stop offset="0%" stop-color="#ffd8a8"/>
      <stop offset="50%" stop-color="#ffb86a"/>
      <stop offset="100%" stop-color="#ffa94d"/>
    </linearGradient>
    <linearGradient id="orbit-cool" x1="0%" y1="50%" x2="100%" y2="50%">
      <stop offset="0%" stop-color="#7dd3fc"/>
      <stop offset="55%" stop-color="#60a5fa"/>
      <stop offset="100%" stop-color="#3b82f6"/>
    </linearGradient>
    <radialGradient id="star-glow" cx="50%" cy="50%" r="50%">
      <stop offset="0%" stop-color="#ffffff"/>
      <stop offset="100%" stop-color="#7dd3fc"/>
    </radialGradient>
  </defs>
  <path fill="none" stroke="url(#orbit-warm)" stroke-width="2.4" stroke-linecap="round"
        d="M10 42 C 14 16, 34 8, 52 22"/>
  <path fill="none" stroke="url(#orbit-cool)" stroke-width="2.4" stroke-linecap="round"
        d="M52 22 C 60 34, 56 54, 28 56 C 14 57, 6 50, 10 42"/>
  <g stroke="#93c5fd" stroke-width="0.8" stroke-linecap="round" opacity="0.5">
    <path d="M22 34 L30 26 L38 30 L44 22"/>
    <path d="M30 26 L28 38"/>
  </g>
  <circle cx="22" cy="34" r="1.4" fill="#ffb86a"/>
  <circle cx="30" cy="26" r="1.2" fill="#ffd8a8"/>
  <circle cx="38" cy="30" r="1.3" fill="#bae6fd"/>
  <circle cx="44" cy="22" r="1.1" fill="#60a5fa"/>
  <circle cx="28" cy="38" r="1" fill="#ffa94d" opacity="0.9"/>
  <g transform="translate(46,14)">
    <path fill="url(#star-glow)" d="M0 -5 L1.4 -1.5 L5 -1.5 L2.2 0.7 L3.4 4.2 L0 2 L-3.4 4.2 L-2.2 0.7 L-5 -1.5 L-1.4 -1.5 Z"/>
  </g>
  <path fill="#ffb86a" transform="translate(14,40) scale(0.5)"
        d="M0 -4 L1.2 -1.2 L4 -1.2 L1.6 0.6 L2.4 3.4 L0 1.8 L-2.4 3.4 L-1.6 0.6 L-4 -1.2 L-1.2 -1.2 Z"/>
</svg>
